<?xml version="1.0" standalone="no"?>
<!DOCTYPE svg PUBLIC "-//W3C//DTD SVG 20010904//EN"
 "http://www.w3.org/TR/2001/REC-SVG-20010904/DTD/svg10.dtd">
<svg version="1.0" xmlns="http://www.w3.org/2000/svg"
 width="64.000000pt" height="64.000000pt" viewBox="0 0 64.000000 64.000000"
 preserveAspectRatio="xMidYMid meet">

<g transform="translate(0.000000,64.000000) scale(0.100000,-0.100000)"
fill="#000000" stroke="none">
<path d="M126 404 c-3 -9 -6 -27 -6 -40 0 -14 -11 -35 -25 -48 -22 -20 -25
-32 -25 -90 0 -107 -3 -106 250 -106 267 0 250 -11 250 170 l0 130 -219 0
c-190 0 -220 -2 -225 -16z m120 -35 c3 -6 -8 -25 -25 -43 l-31 -32 32 -32 c25
-25 30 -34 20 -44 -9 -9 -20 -5 -49 18 -63 51 -64 60 -14 105 46 41 56 45 67
28z m109 1 c8 -12 -32 -147 -46 -156 -25 -15 -30 14 -13 72 25 89 42 112 59
84z m106 -29 c50 -45 49 -54 -14 -105 -29 -23 -40 -27 -49 -18 -9 9 -5 20 20
45 l32 33 -31 31 c-28 27 -32 53 -10 53 5 0 28 -18 52 -39z"/>
</g>
</svg>
