<!--?xml version="1.0" standalone="no"?-->
              <svg id="sw-js-blob-svg" viewBox="0 0 100 100" xmlns="http://www.w3.org/2000/svg" version="1.1">
                    <defs> 
                        <linearGradient id="sw-gradient" x1="0" x2="1" y1="1" y2="0">
                            <stop id="stop1" stop-color="rgba(78, 93, 192, 1)" offset="0%"></stop>
                            <stop id="stop2" stop-color="rgba(251, 168, 31, 1)" offset="100%"></stop>
                        </linearGradient>
                    </defs>
                <path fill="rgba(78, 93, 192, 1)" d="M23,-31.6C30.1,-26.6,36.4,-20.2,38.1,-12.9C39.7,-5.5,36.9,2.8,32.4,8.6C27.8,14.4,21.6,17.8,15.9,23.8C10.2,29.9,5.1,38.7,-0.7,39.7C-6.6,40.7,-13.1,33.9,-17.5,27.4C-22,20.9,-24.3,14.8,-28.4,7.9C-32.6,0.9,-38.6,-6.8,-37,-12.2C-35.5,-17.6,-26.4,-20.7,-19,-25.7C-11.5,-30.7,-5.8,-37.5,1.1,-39C8,-40.5,15.9,-36.7,23,-31.6Z" width="100%" height="100%" transform="translate(50 50)" stroke-width="0" style="transition: all 0.3s ease 0s;" stroke="url(#sw-gradient)"></path>
              </svg>