<!--?xml version="1.0" standalone="no"?-->
              <svg id="sw-js-blob-svg" viewBox="0 0 100 100" xmlns="http://www.w3.org/2000/svg" version="1.1">
                    <defs> 
                        <linearGradient id="sw-gradient" x1="0" x2="1" y1="1" y2="0">
                            <stop id="stop1" stop-color="rgba(78, 93, 192, 1)" offset="0%"></stop>
                            <stop id="stop2" stop-color="rgba(251, 168, 31, 1)" offset="100%"></stop>
                        </linearGradient>
                    </defs>
                <path fill="rgba(78, 93, 192, 1)" d="M25.6,-33.7C32.9,-30,38.4,-22.1,41.4,-13.3C44.4,-4.6,45,5.1,40.5,11.4C36.1,17.7,26.6,20.6,19,25.9C11.4,31.1,5.7,38.8,-1.6,40.9C-8.8,43.1,-17.7,39.8,-23.4,33.9C-29.2,28,-31.8,19.6,-32.3,11.9C-32.8,4.3,-31.2,-2.7,-27.4,-7.2C-23.6,-11.8,-17.7,-14,-12.8,-18.5C-7.8,-23,-3.9,-29.9,2.6,-33.5C9.2,-37.1,18.3,-37.5,25.6,-33.7Z" width="100%" height="100%" transform="translate(50 50)" stroke-width="0" style="transition: all 0.3s ease 0s;" stroke="url(#sw-gradient)"></path>
              </svg>