<!--?xml version="1.0" standalone="no"?-->
              <svg id="sw-js-blob-svg" viewBox="0 0 100 100" xmlns="http://www.w3.org/2000/svg" version="1.1">
                    <defs> 
                        <linearGradient id="sw-gradient" x1="0" x2="1" y1="1" y2="0">
                            <stop id="stop1" stop-color="rgba(78, 93, 192, 1)" offset="0%"></stop>
                            <stop id="stop2" stop-color="rgba(251, 168, 31, 1)" offset="100%"></stop>
                        </linearGradient>
                    </defs>
                <path fill="rgba(78, 93, 192, 1)" d="M19.8,-25.2C27.2,-22,35.6,-18.1,35.1,-13C34.6,-7.9,25.1,-1.4,21.1,5.7C17.2,12.7,18.8,20.4,16.2,27.1C13.6,33.8,6.8,39.7,0.2,39.4C-6.4,39.1,-12.8,32.7,-19,27.2C-25.2,21.6,-31.2,16.8,-32,11.2C-32.8,5.5,-28.3,-1.1,-26.4,-9.1C-24.6,-17.2,-25.4,-26.6,-21.4,-30.9C-17.4,-35.2,-8.7,-34.5,-1.2,-32.8C6.2,-31.1,12.5,-28.4,19.8,-25.2Z" width="100%" height="100%" transform="translate(50 50)" stroke-width="0" style="transition: all 0.3s ease 0s;" stroke="url(#sw-gradient)"></path>
              </svg>