<!--?xml version="1.0" standalone="no"?-->
              <svg id="sw-js-blob-svg" viewBox="0 0 100 100" xmlns="http://www.w3.org/2000/svg" version="1.1">
                    <defs> 
                        <linearGradient id="sw-gradient" x1="0" x2="1" y1="1" y2="0">
                            <stop id="stop1" stop-color="rgba(78, 93, 192, 1)" offset="0%"></stop>
                            <stop id="stop2" stop-color="rgba(251, 168, 31, 1)" offset="100%"></stop>
                        </linearGradient>
                    </defs>
                <path fill="rgba(78, 93, 192, 1)" d="M12.2,-17.3C18.6,-12.2,28.3,-12.3,30.9,-9C33.4,-5.6,28.8,1.1,25.7,7.7C22.6,14.2,21.1,20.6,17.1,22.9C13.1,25.3,6.5,23.6,-1.1,25.1C-8.8,26.7,-17.5,31.4,-22.3,29.3C-27.1,27.2,-27.9,18.3,-29.1,10.5C-30.3,2.6,-31.9,-4.1,-29.4,-8.9C-27,-13.7,-20.5,-16.5,-15,-21.9C-9.4,-27.2,-4.7,-34.9,-0.9,-33.7C2.9,-32.5,5.9,-22.3,12.2,-17.3Z" width="100%" height="100%" transform="translate(50 50)" stroke-width="0" style="transition: all 0.3s ease 0s;" stroke="url(#sw-gradient)"></path>
              </svg>