<!--?xml version="1.0" standalone="no"?-->
              <svg id="sw-js-blob-svg" viewBox="0 0 100 100" xmlns="http://www.w3.org/2000/svg" version="1.1">
                    <defs> 
                        <linearGradient id="sw-gradient" x1="0" x2="1" y1="1" y2="0">
                            <stop id="stop1" stop-color="rgba(78, 93, 192, 1)" offset="0%"></stop>
                            <stop id="stop2" stop-color="rgba(251, 168, 31, 1)" offset="100%"></stop>
                        </linearGradient>
                    </defs>
                <path fill="rgba(78, 93, 192, 1)" d="M18.1,-25C23.3,-21.2,27.1,-15.6,28.2,-9.7C29.3,-3.9,27.7,2.3,26.3,9.1C24.9,15.9,23.6,23.3,19.2,28.9C14.9,34.5,7.4,38.3,0,38.3C-7.5,38.3,-15,34.7,-19.3,29.1C-23.7,23.5,-24.8,16,-28.3,8.5C-31.7,1,-37.4,-6.5,-36.1,-12.1C-34.8,-17.7,-26.5,-21.4,-19.3,-24.5C-12.1,-27.7,-6.1,-30.3,0.2,-30.6C6.5,-30.9,12.9,-28.8,18.1,-25Z" width="100%" height="100%" transform="translate(50 50)" stroke-width="0" style="transition: all 0.3s ease 0s;" stroke="url(#sw-gradient)"></path>
              </svg>