<!--?xml version="1.0" standalone="no"?-->
              <svg id="sw-js-blob-svg" viewBox="0 0 100 100" xmlns="http://www.w3.org/2000/svg" version="1.1">
                    <defs> 
                        <linearGradient id="sw-gradient" x1="0" x2="1" y1="1" y2="0">
                            <stop id="stop1" stop-color="rgba(78, 93, 192, 1)" offset="0%"></stop>
                            <stop id="stop2" stop-color="rgba(251, 168, 31, 1)" offset="100%"></stop>
                        </linearGradient>
                    </defs>
                <path fill="rgba(78, 93, 192, 1)" d="M13.1,-18.6C19.3,-13.6,28.3,-12.8,32.1,-8.6C36,-4.4,34.7,3.2,32.9,11.3C31.1,19.4,28.8,27.9,23.2,34.5C17.7,41,8.8,45.5,1.3,43.7C-6.3,42,-12.6,34,-18.9,27.8C-25.2,21.5,-31.4,16.9,-32.5,11.1C-33.6,5.4,-29.5,-1.4,-27.3,-9.2C-25.2,-16.9,-25.1,-25.6,-20.8,-31.3C-16.6,-37,-8.3,-39.8,-2.4,-36.4C3.5,-33.1,6.9,-23.7,13.1,-18.6Z" width="100%" height="100%" transform="translate(50 50)" stroke-width="0" style="transition: all 0.3s ease 0s;" stroke="url(#sw-gradient)"></path>
              </svg>